<?xml version="1.0" encoding="utf-8"?>
<svg xmlns="http://www.w3.org/2000/svg" fill="none" height="48" viewBox="0 0 146 48" width="146">
<path d="M0 31.8984C0.703125 31.8984 1.42969 31.9219 2.13281 31.9219C3.42188 31.9219 4.71094 31.9219 5.97656 31.9219C7.05469 31.9219 7.94531 32.3438 8.39063 33.3516C8.78906 34.2422 9.07031 35.2031 9.35156 36.1406C9.75 37.5938 10.2188 39 11.2266 40.1484C12.3281 41.4141 13.7109 42.3281 15.2109 43.0781C17.3906 44.1797 19.7109 44.8359 22.125 45.1406C25.0547 45.4922 27.9375 45.3047 30.75 44.3203C34.125 43.125 36.7969 41.0625 38.4844 37.8516C39.1641 36.5391 39.4922 35.1328 39.4922 33.6328C39.4688 22.6172 39.4922 11.6016 39.4922 0.5625C39.4922 0.421875 39.4922 0.28125 39.4922 0.09375C41.9531 0.09375 44.3906 0.09375 46.875 0.09375C46.875 0.234375 46.875 0.398438 46.875 0.539063C46.875 11.5313 46.8984 22.5234 46.8516 33.5391C46.8281 37.6875 45.0234 41.0156 41.625 43.4297C39.3516 45.0469 36.8203 46.0312 34.125 46.7109C32.3906 47.1562 30.6328 47.4141 28.8516 47.6016C26.2734 47.8594 23.6719 47.8594 21.0938 47.6953C17.3672 47.4844 13.6875 46.9453 10.1719 45.6797C7.85156 44.8594 5.71875 43.7578 3.84375 42.1406C1.89844 40.4062 0.539062 38.2969 0.09375 35.6484C0.0703125 35.5781 0.0234375 35.5078 0 35.4375C0 34.2656 0 33.0703 0 31.8984Z" fill="#DF2626"/>
<path d="M0 21.2809C1.57031 21.3043 3.14063 21.2575 4.71094 21.3512C5.85938 21.4215 6.49219 22.2653 6.53906 23.4372C6.5625 23.9762 6.60937 24.5153 6.72656 25.0543C6.91406 25.8981 7.42969 26.2731 8.32031 26.2731C9.30469 26.2965 9.89063 25.945 10.1484 25.1247C10.2422 24.82 10.3125 24.5153 10.3125 24.2106C10.3359 23.3668 10.3594 22.5465 10.3125 21.7028C10.2422 20.6715 9.60938 20.1325 8.55469 20.1325C7.14844 20.1325 5.71875 20.0856 4.33594 19.8043C2.4375 19.4293 1.05469 18.3747 0.351562 16.5465C0.210937 16.195 0.164062 15.82 0.164062 15.445C0.140625 14.4372 0.1875 13.4059 0.140625 12.3981C0.0703125 10.57 0.960938 9.30434 2.46094 8.41372C3.51562 7.7809 4.6875 7.52309 5.90625 7.38247C7.35937 7.19497 8.8125 7.19497 10.2422 7.33559C11.7656 7.47622 13.2422 7.80434 14.5312 8.7184C15.9141 9.70278 16.6875 11.0387 16.9219 12.7028C17.0156 13.4059 17.0625 14.109 17.1094 14.859C16.9922 14.8825 16.8984 14.9059 16.8281 14.9059C15.4922 14.9059 14.1563 14.9059 12.8438 14.859C11.8594 14.8122 10.9922 14.484 10.6172 13.4997C10.4766 13.1247 10.4766 12.6793 10.4062 12.2575C10.3828 12.07 10.3828 11.9059 10.3594 11.7184C10.2422 10.8512 10.0078 10.5934 9.14062 10.4528C8.78906 10.4059 8.4375 10.3825 8.08594 10.4293C7.38281 10.5231 6.9375 10.945 6.77344 11.6012C6.67969 11.9293 6.65625 12.2575 6.63281 12.609C6.60938 13.2653 6.65625 13.9215 6.63281 14.5778C6.58594 15.7497 7.3125 16.6168 8.69531 16.6637C10.0547 16.734 11.4141 16.8043 12.7734 16.9684C14.0156 17.109 15.0938 17.695 15.9141 18.6793C16.5469 19.4293 16.8281 20.32 16.8516 21.2809C16.875 22.3122 16.8516 23.3668 16.8516 24.3981C16.875 26.1325 16.0547 27.4215 14.6484 28.359C13.5234 29.109 12.2344 29.4137 10.8984 29.5075C9.72656 29.5778 8.53125 29.6012 7.35938 29.5543C6.07031 29.5075 4.78125 29.2497 3.60938 28.6872C1.52344 27.6793 0.328125 26.0387 0.09375 23.7184C0.09375 23.6247 0.0234375 23.5543 0 23.4606C0 22.734 0 22.0075 0 21.2809Z" fill="#DF2626"/>
<path d="M97.2422 47.9531C96.9844 47.7891 96.75 47.6016 96.4688 47.4141C96.4453 47.5547 96.4453 47.6953 96.4219 47.8359C96.0703 47.8359 95.7188 47.8359 95.3672 47.8359C95.3672 46.0078 95.3672 44.1797 95.3672 42.3516C95.7422 42.3516 96.0938 42.3516 96.4688 42.3516C96.4688 43.0547 96.4688 43.7344 96.4688 44.4375C96.7734 44.2734 97.0547 44.0391 97.3594 43.9687C98.4141 43.7344 99.2109 44.3203 99.3281 45.375C99.375 45.8203 99.3516 46.2891 99.2344 46.7344C99.0938 47.4141 98.5781 47.7656 97.9453 47.9531C97.7109 47.9531 97.4766 47.9531 97.2422 47.9531ZM98.2734 45.9375C98.2266 45.6797 98.2031 45.4688 98.1328 45.2344C98.0391 44.8828 97.8281 44.625 97.4297 44.625C97.0312 44.6016 96.7266 44.7891 96.5859 45.1875C96.3984 45.6797 96.3984 46.1953 96.5859 46.6875C96.7031 46.9922 96.9141 47.2031 97.2891 47.2266C97.6641 47.25 97.9453 47.0625 98.0859 46.7344C98.1797 46.4531 98.2266 46.1719 98.2734 45.9375Z" fill="#010101"/>
<path d="M137.065 47.9531C136.854 47.8125 136.596 47.7187 136.408 47.5312C135.588 46.8047 135.611 45 136.432 44.2734C137.065 43.7344 137.908 43.7813 138.705 44.3906C138.705 43.6875 138.705 43.0313 138.705 42.3281C139.104 42.3281 139.455 42.3281 139.83 42.3281C139.83 44.1563 139.83 45.9609 139.83 47.8125C139.479 47.8125 139.127 47.8125 138.752 47.8125C138.729 47.6719 138.729 47.5313 138.705 47.4375C138.401 47.6016 138.096 47.7656 137.791 47.9297C137.533 47.9531 137.299 47.9531 137.065 47.9531ZM138.776 45.9375C138.705 45.6563 138.658 45.3516 138.518 45.0703C138.354 44.7422 138.072 44.5781 137.674 44.625C137.322 44.6719 137.135 44.8828 137.041 45.1875C136.877 45.6797 136.877 46.1719 137.065 46.6641C137.182 46.9922 137.416 47.2031 137.791 47.2266C138.19 47.25 138.447 47.0391 138.588 46.7109C138.658 46.4766 138.705 46.2188 138.776 45.9375Z" fill="#010101"/>
<path d="M89.7422 47.9537C89.6953 47.9068 89.6484 47.8599 89.5781 47.8365C89.0859 47.649 88.875 47.274 88.875 46.7583C88.875 46.2427 89.1328 45.8443 89.6016 45.7037C90.0938 45.563 90.6094 45.5162 91.125 45.4458C91.2188 45.4224 91.3125 45.4224 91.4063 45.4224C91.4766 44.8365 91.3359 44.5552 90.9609 44.5083C90.5859 44.438 90.375 44.6021 90.2578 45.0943C89.9063 45.0943 89.5547 45.0943 89.1563 45.0943C89.1094 44.7193 89.2734 44.4146 89.5781 44.2271C90.3281 43.7818 91.125 43.7818 91.8984 44.0865C92.2969 44.2505 92.4609 44.6255 92.4844 45.024C92.5078 45.9615 92.4844 46.8755 92.4844 47.8599C92.2266 47.8599 91.9219 47.9068 91.6406 47.8365C91.5234 47.813 91.4531 47.6021 91.3828 47.4849C91.1016 47.6255 90.7969 47.7896 90.4922 47.9537C90.2813 47.9537 90.0234 47.9537 89.7422 47.9537ZM91.4766 46.0318C91.0078 45.938 90.5156 46.0083 90.2578 46.1958C90.0469 46.3365 89.9531 46.5474 90.0234 46.7818C90.0703 46.9458 90.2109 47.1333 90.3516 47.2037C90.7266 47.3912 91.1953 47.2037 91.3359 46.7818C91.4297 46.5708 91.4297 46.2896 91.4766 46.0318Z" fill="#010101"/>
<path d="M47.6032 47.9527C47.5329 47.9058 47.486 47.8355 47.4157 47.8121C46.9703 47.6011 46.7829 47.2496 46.7594 46.7808C46.736 46.2886 46.9703 45.8902 47.4157 45.7496C47.9313 45.5855 48.4704 45.5386 49.0094 45.4449C49.1032 45.4215 49.2204 45.4214 49.3141 45.4214C49.3844 44.8824 49.2438 44.6011 48.9157 44.5074C48.5172 44.3902 48.3063 44.5543 48.0954 45.0699C47.7438 45.0699 47.3922 45.0699 47.0172 45.0699C47.0407 44.5074 47.3219 44.1793 47.8141 44.0152C48.4 43.8043 48.986 43.8043 49.5954 43.9683C50.1579 44.1324 50.3922 44.5777 50.4157 45.0933C50.4625 45.984 50.4157 46.898 50.4157 47.8121C50.111 47.8121 49.7829 47.8121 49.4313 47.8121C49.3844 47.6715 49.361 47.5308 49.3375 47.4371C49.0563 47.6011 48.775 47.7652 48.4703 47.9293C48.1891 47.9527 47.8844 47.9527 47.6032 47.9527ZM49.4313 45.9371C48.986 45.984 48.6813 45.9839 48.4 46.0777C48.2125 46.1246 48.025 46.2886 47.9313 46.4761C47.7672 46.7339 47.9079 47.0386 48.1657 47.1793C48.4938 47.3668 48.986 47.273 49.15 46.9449C49.2672 46.6636 49.3141 46.359 49.4313 45.9371Z" fill="#010101"/>
<path d="M101.297 47.9531C101.25 47.9297 101.18 47.8828 101.133 47.8594C100.336 47.6016 99.9847 47.0156 99.9378 46.2188C99.8909 45.4219 100.032 44.6484 100.782 44.2031C101.485 43.7812 102.258 43.7812 102.985 44.2031C103.594 44.5547 103.828 45.1875 103.758 46.1719C102.867 46.1719 101.953 46.1719 101.063 46.1719C100.969 46.7109 101.25 47.1797 101.649 47.2734C102.188 47.3906 102.492 47.2266 102.68 46.6641C103.008 46.6641 103.36 46.6641 103.711 46.6641C103.688 47.2266 103.336 47.6484 102.75 47.8359C102.633 47.8828 102.516 47.9297 102.399 47.9766C102.024 47.9531 101.672 47.9531 101.297 47.9531ZM102.68 45.4922C102.68 44.8594 102.399 44.5547 101.883 44.5781C101.344 44.6016 101.039 44.9531 101.086 45.4922C101.625 45.4922 102.164 45.4922 102.68 45.4922Z" fill="#010101"/>
<path d="M80.7427 47.9527C80.6959 47.9292 80.6255 47.8824 80.5787 47.8589C79.6412 47.5074 79.1959 46.7574 79.2896 45.6792C79.3834 44.7183 79.9693 44.0855 80.9537 43.9683C81.3287 43.9214 81.7271 43.9214 82.1021 44.0152C82.9927 44.2027 83.5318 44.9761 83.5084 45.9605C83.5084 46.9449 82.9459 47.6714 82.0787 47.9058C82.0084 47.9292 81.938 47.9527 81.8677 47.9995C81.4693 47.9527 81.0943 47.9527 80.7427 47.9527ZM80.4146 45.9136C80.4615 46.1949 80.4849 46.4761 80.5787 46.7339C80.6959 47.0855 80.9537 47.2964 81.3521 47.2964C81.7037 47.2964 81.9849 47.1324 82.1255 46.8042C82.3834 46.2183 82.3834 45.6324 82.1255 45.0464C81.9849 44.6949 81.6802 44.5542 81.3052 44.5777C80.9302 44.6011 80.6959 44.7886 80.5787 45.1402C80.4849 45.3745 80.4615 45.6324 80.4146 45.9136Z" fill="#010101"/>
<path d="M127.759 47.9534C127.665 47.9066 127.595 47.8363 127.501 47.7894C126.634 47.4378 126.259 46.7113 126.376 45.5394C126.447 44.7659 127.033 44.0863 127.853 43.9691C128.275 43.8988 128.744 43.8988 129.165 43.9925C130.08 44.18 130.548 44.9066 130.525 46.0081C130.525 46.9222 129.986 47.6253 129.142 47.8597C129.072 47.8831 129.001 47.9066 128.931 47.9534C128.533 47.9534 128.134 47.9534 127.759 47.9534ZM129.423 45.9378C129.376 45.6566 129.33 45.3988 129.259 45.1644C129.119 44.7659 128.837 44.555 128.462 44.555C128.087 44.555 127.783 44.7659 127.642 45.1409C127.478 45.68 127.455 46.2191 127.689 46.7581C127.83 47.0863 128.087 47.2738 128.462 47.2503C128.814 47.2503 129.095 47.0863 129.236 46.7581C129.306 46.5003 129.353 46.2191 129.423 45.9378Z" fill="#010101"/>
<path d="M111.541 47.9533C111.517 47.9298 111.47 47.883 111.447 47.8595C110.181 47.3439 109.736 45.6095 110.627 44.5314C111.213 43.8283 112.01 43.7579 112.853 43.9689C113.556 44.1564 113.955 44.7189 114.025 45.5392C114.049 45.7267 114.049 45.8908 114.072 46.1017C113.134 46.1017 112.22 46.1017 111.306 46.1017C111.259 46.7111 111.494 47.133 111.916 47.2267C112.431 47.3439 112.713 47.1798 112.947 46.6173C113.275 46.6173 113.627 46.6173 113.978 46.6173C113.884 47.2501 113.51 47.672 112.877 47.8361C112.783 47.8595 112.713 47.9064 112.619 47.9298C112.267 47.9533 111.916 47.9533 111.541 47.9533ZM112.994 45.4923C112.947 44.7892 112.666 44.5314 112.056 44.6017C111.564 44.6486 111.306 45.0236 111.377 45.4923C111.916 45.4923 112.455 45.4923 112.994 45.4923Z" fill="#010101"/>
<path d="M64.1724 47.9531C64.1255 47.9062 64.0552 47.8593 64.0084 47.8359C63.0709 47.4843 62.6255 46.7109 62.7193 45.6796C62.813 44.6953 63.399 44.1093 64.4068 43.9218C65.6255 43.7109 66.6333 44.2734 66.8677 45.3281C67.1255 46.5468 66.5865 47.6718 65.3912 47.8828C65.3677 47.8828 65.3677 47.9296 65.3677 47.9296C64.9459 47.9531 64.5474 47.9531 64.1724 47.9531ZM63.8443 45.9374C63.9146 46.2187 63.938 46.4999 64.0318 46.7812C64.149 47.1328 64.4302 47.2968 64.7818 47.2968C65.1334 47.2968 65.3912 47.1562 65.5318 46.8515C65.813 46.2656 65.813 45.6562 65.5552 45.0703C65.4146 44.7187 65.1099 44.5781 64.7349 44.6015C64.3599 44.6249 64.1255 44.8124 64.0084 45.1406C63.938 45.3749 63.9146 45.6562 63.8443 45.9374Z" fill="#010101"/>
<path d="M52.2422 47.9531C52.1719 47.9062 52.125 47.8594 52.0547 47.8359C51.75 47.7187 51.5859 47.4844 51.5625 47.1797C51.5391 46.5 51.5391 45.7969 51.5391 45.1172C51.5391 45 51.5391 44.9063 51.5391 44.7656C51.2813 44.7656 51.0703 44.7656 50.8359 44.7656C50.8359 44.5078 50.8359 44.2734 50.8359 44.0156C51.0703 44.0156 51.2813 44.0156 51.5625 44.0156C51.3516 43.0781 52.1719 43.2422 52.6406 42.8906C52.6406 43.2891 52.6406 43.6172 52.6406 43.9922C52.9453 43.9922 53.25 43.9922 53.5547 43.9922C53.5547 44.2734 53.5547 44.4844 53.5547 44.7422C53.25 44.7422 52.9688 44.7422 52.6641 44.7422C52.6641 45.4453 52.6641 46.125 52.6641 46.7812C52.6641 47.0391 52.8516 47.1328 53.0625 47.1562C53.2266 47.1797 53.3672 47.1562 53.5313 47.1562C53.5313 47.3672 53.5313 47.5781 53.5313 47.8125C53.4141 47.8594 53.2969 47.9062 53.2031 47.9531C52.875 47.9531 52.5703 47.9531 52.2422 47.9531Z" fill="#010101"/>
<path d="M108.492 47.9531C107.813 47.6484 107.742 47.0859 107.766 46.4297C107.789 45.8672 107.766 45.3281 107.766 44.7422C107.508 44.7422 107.297 44.7422 107.039 44.7422C107.039 44.4844 107.039 44.2734 107.039 44.0156C107.25 44.0156 107.484 44.0156 107.766 44.0156C107.555 43.0781 108.375 43.2188 108.844 42.8906C108.844 43.2891 108.844 43.6172 108.844 43.9922C109.172 43.9922 109.453 43.9922 109.758 43.9922C109.758 44.25 109.758 44.4844 109.758 44.7422C109.477 44.7422 109.195 44.7422 108.867 44.7422C108.867 45.4453 108.867 46.1016 108.867 46.7578C108.867 47.0156 109.055 47.1562 109.336 47.1797C109.477 47.1797 109.594 47.1797 109.758 47.1797C109.758 47.3906 109.758 47.6016 109.758 47.8359C109.664 47.8828 109.547 47.9297 109.43 47.9766C109.125 47.9531 108.82 47.9531 108.492 47.9531Z" fill="#010101"/>
<path d="M105.586 47.9531C104.883 47.6953 104.836 47.1328 104.859 46.5C104.883 45.9375 104.859 45.375 104.859 44.7656C104.625 44.7656 104.414 44.7656 104.156 44.7656C104.156 44.5078 104.156 44.2734 104.156 44.0156C104.367 44.0156 104.602 44.0156 104.883 44.0156C104.648 43.0781 105.492 43.2422 105.938 42.8906C105.938 43.2891 105.938 43.6172 105.938 43.9922C106.242 43.9922 106.523 43.9922 106.828 43.9922C106.828 44.25 106.828 44.4844 106.828 44.7422C106.547 44.7422 106.266 44.7422 105.961 44.7422C105.961 45.4453 105.961 46.1016 105.961 46.7578C105.961 46.9922 106.125 47.1328 106.359 47.1562C106.5 47.1797 106.664 47.1562 106.828 47.1562C106.828 47.3672 106.828 47.6016 106.828 47.8125C106.734 47.8594 106.641 47.9062 106.523 47.9531C106.219 47.9531 105.914 47.9531 105.586 47.9531Z" fill="#010101"/>
<path d="M71.9531 29.3906C70.1016 29.3906 68.2969 29.3906 66.4453 29.3906C66.4453 19.6172 66.4453 9.86719 66.4453 0.09375C68.3203 0.09375 70.1719 0.09375 72.0703 0.09375C72.0703 3.98438 72.0703 7.85156 72.0703 11.7656C72.2344 11.7656 72.3516 11.7656 72.4922 11.7656C73.9687 11.7656 75.4453 11.7188 76.9219 11.8125C78.8672 11.9531 80.0859 13.2422 80.2969 15.1641C80.3203 15.4688 80.3437 15.7734 80.3437 16.0781C80.3437 20.3672 80.3437 24.6797 80.3437 28.9688C80.3437 29.1094 80.3437 29.2266 80.3437 29.3672C80.2734 29.3906 80.25 29.4141 80.2031 29.4141C79.2422 29.4375 78.2813 29.4375 77.3438 29.4375C75.8438 29.4375 75 28.5703 75 27.0703C75 23.3438 75 19.6172 75 15.8906C75 15.2578 74.7187 14.7891 74.1562 14.5078C73.6172 14.2266 73.0547 14.2734 72.5625 14.625C72.2109 14.8828 72.0234 15.2344 71.9766 15.6562C71.9531 15.8203 71.9531 15.9844 71.9531 16.1719C71.9531 20.4375 71.9531 24.7031 71.9531 28.9688C71.9531 29.0859 71.9531 29.2266 71.9531 29.3906Z" fill="#010101"/>
<path d="M37.0078 14.6958C35.9531 14.6958 34.8984 14.7192 33.8672 14.6958C33.1641 14.6958 32.4375 14.6724 31.7344 14.6021C30.4688 14.438 29.8594 13.7349 29.8359 12.4692C29.8359 12.2817 29.8125 12.1177 29.7891 11.9302C29.5312 10.4302 28.3359 10.2661 27.3047 10.5708C26.625 10.7583 26.4141 11.3677 26.2969 12.0005C26.2734 12.188 26.25 12.3755 26.25 12.5864C26.25 16.4067 26.25 20.2271 26.25 24.0708C26.25 24.2817 26.25 24.5161 26.2969 24.7271C26.5313 25.9692 27.6562 26.5552 28.8281 26.063C29.5547 25.7583 29.7188 25.0786 29.8125 24.3989C29.8594 24.0708 29.8359 23.7192 29.8594 23.3911C29.9531 22.3599 30.6094 21.6099 31.6641 21.3989C31.8984 21.3521 32.1328 21.3286 32.3906 21.3286C33.8203 21.3052 35.25 21.2817 36.6797 21.2817C36.8203 21.2817 36.9375 21.2817 37.1016 21.2817C37.1016 22.8989 37.1484 24.4927 36.4453 25.9692C35.7188 27.4692 34.3828 28.313 32.8594 28.8286C31.7109 29.2036 30.5156 29.3442 29.2969 29.438C27.8672 29.5317 26.4375 29.4849 25.0313 29.2739C23.5078 29.063 22.0781 28.6177 20.9063 27.5864C19.8047 26.6255 19.1719 25.4302 19.1719 23.9536C19.1719 20.2974 19.1719 16.6411 19.1719 12.9849C19.1719 11.0396 20.0859 9.60986 21.6797 8.60205C22.7109 7.9458 23.8828 7.66455 25.1016 7.50049C26.8828 7.26611 28.6641 7.26611 30.4453 7.45361C31.7344 7.59424 32.9766 7.87549 34.1016 8.5083C36 9.53955 36.9844 11.1333 37.0313 13.2896C37.0078 13.6646 37.0078 14.1567 37.0078 14.6958Z" fill="#DF2626"/>
<path d="M129.354 20.5787C129.354 22.0553 129.377 23.5318 129.354 25.0084C129.33 26.5318 128.604 27.6568 127.314 28.4303C126.189 29.1099 124.924 29.3912 123.635 29.4849C122.252 29.6021 120.893 29.5787 119.51 29.3443C118.15 29.1099 116.861 28.6646 115.854 27.6334C115.15 26.9068 114.775 25.9928 114.775 24.9849C114.752 22.0318 114.752 19.1021 114.775 16.149C114.799 14.6021 115.572 13.4771 116.885 12.7037C117.939 12.0943 119.088 11.8131 120.283 11.6959C121.783 11.5553 123.307 11.5553 124.807 11.8365C126.002 12.0709 127.127 12.4459 128.041 13.2662C128.838 13.9928 129.307 14.8834 129.33 15.9615C129.377 17.5084 129.354 19.0553 129.354 20.5787ZM123.541 20.5084C123.541 18.8678 123.541 17.2037 123.541 15.5631C123.541 14.5318 122.697 13.8287 121.736 14.0631C120.986 14.2506 120.494 14.8599 120.494 15.7037C120.494 17.4615 120.494 19.2428 120.494 21.0006C120.494 22.4537 120.471 23.9068 120.494 25.36C120.518 26.3209 121.221 26.9303 122.182 26.9068C122.979 26.8834 123.518 26.2271 123.518 25.3131C123.541 23.7428 123.541 22.1256 123.541 20.5084Z" fill="#010101"/>
<path d="M64.0534 20.6018C64.0534 21.8909 64.0299 23.1799 64.0534 24.4455C64.1237 26.9299 62.7878 28.2893 60.7956 28.969C59.5065 29.4143 58.194 29.508 56.8346 29.508C55.6159 29.508 54.3971 29.4377 53.2253 29.1096C52.194 28.8284 51.2565 28.383 50.5065 27.5862C49.7799 26.7893 49.4518 25.8284 49.4518 24.7737C49.4284 22.0315 49.4518 19.2893 49.4518 16.5705C49.4518 14.5784 50.3893 13.1955 52.194 12.3987C53.2018 11.9534 54.2565 11.7424 55.3581 11.6721C56.8581 11.5784 58.3815 11.5784 59.8581 11.9065C61.0534 12.1643 62.1784 12.6096 63.0221 13.5237C63.7721 14.3205 64.0534 15.2815 64.0768 16.3362C64.0534 17.7659 64.0534 19.1955 64.0534 20.6018ZM58.2174 20.4846C58.2174 18.8674 58.2174 17.2502 58.2174 15.6096C58.2174 14.6721 57.6081 13.9924 56.7643 13.9924C55.8971 13.9924 55.1706 14.7424 55.1706 15.633C55.1706 18.8674 55.1706 22.1018 55.1706 25.3127C55.1706 25.4299 55.1706 25.5237 55.194 25.6409C55.3581 26.4612 56.1081 27.0002 56.9518 26.9065C57.6784 26.8362 58.194 26.2034 58.194 25.3596C58.2174 23.7659 58.2174 22.1252 58.2174 20.4846Z" fill="#010101"/>
<path d="M136.945 29.3913C135.258 29.3913 133.594 29.3913 131.93 29.3913C131.93 23.5085 131.93 17.6491 131.93 11.7663C132.047 11.7663 132.164 11.7428 132.281 11.7428C135.328 11.7428 138.375 11.7194 141.445 11.7428C143.883 11.7897 145.313 13.2897 145.336 15.61C145.383 20.11 145.359 24.61 145.359 29.11C145.359 29.1803 145.359 29.2741 145.336 29.3913C144.82 29.3913 144.352 29.3913 143.859 29.3913C143.344 29.3913 142.828 29.4147 142.289 29.4147C140.813 29.3913 139.969 28.5241 139.969 27.0475C139.969 23.321 139.969 19.6178 139.969 15.8913C139.969 15.0475 139.523 14.5085 138.703 14.321C137.883 14.1335 137.039 14.7428 136.969 15.5866C136.945 15.7741 136.945 15.985 136.945 16.1725C136.945 20.4382 136.945 24.7038 136.945 28.946C136.945 29.11 136.945 29.2507 136.945 29.3913Z" fill="#010101"/>
<path d="M88.0078 29.3913C86.3203 29.3913 84.6797 29.3913 83.0156 29.3913C83.0156 23.5319 83.0156 17.6491 83.0156 11.7663C83.1094 11.7663 83.2031 11.7428 83.3203 11.7428C86.3906 11.7428 89.4609 11.7194 92.5547 11.7428C94.7578 11.7663 96.1641 13.0788 96.375 15.2116C96.3984 15.4928 96.4219 15.7975 96.4219 16.0788C96.4219 20.3678 96.4219 24.6569 96.4219 28.946C96.4219 29.0866 96.4219 29.2272 96.4219 29.3913C95.7656 29.3913 95.1563 29.3913 94.5469 29.3913C94.0547 29.3913 93.5859 29.4382 93.0938 29.3913C91.8281 29.2741 91.0781 28.4538 91.0781 27.1882C91.0781 23.4147 91.0781 19.6647 91.0781 15.8913C91.0781 15.0944 90.6094 14.5319 89.8594 14.3444C88.9688 14.1335 88.1484 14.7428 88.0313 15.6335C88.0078 15.7975 88.0078 15.9616 88.0078 16.1491C88.0078 20.4147 88.0078 24.6803 88.0078 28.946C88.0078 29.0866 88.0078 29.2272 88.0078 29.3913Z" fill="#010101"/>
<path d="M112.453 17.7189C111.141 17.7189 109.946 17.7658 108.727 17.6955C107.696 17.6252 107.11 16.922 107.086 15.8908C107.086 15.5627 107.039 15.2111 106.946 14.883C106.899 14.6955 106.758 14.4845 106.594 14.3674C105.493 13.6408 104.11 14.3439 104.063 15.6564C104.039 16.3595 104.039 17.0627 104.063 17.7658C104.086 18.5627 104.766 19.1017 105.68 19.1486C106.875 19.2189 108.094 19.2658 109.289 19.4533C110.883 19.7111 111.938 20.8361 112.172 22.3595C112.266 23.0392 112.196 23.7424 112.196 24.422C112.196 24.9611 112.243 25.5002 112.172 26.0158C111.985 27.2345 111.235 28.0783 110.18 28.6642C109.243 29.1799 108.211 29.3674 107.157 29.4377C105.774 29.5549 104.414 29.5314 103.055 29.2033C101.203 28.7814 99.7503 27.8205 99.1175 25.9455C98.7659 24.9611 98.7894 23.9064 98.7894 22.8752C98.8128 22.8517 98.8363 22.8283 98.8597 22.8283C100.078 22.8283 101.274 22.8049 102.493 22.8752C103.43 22.922 103.969 23.5783 104.016 24.5392C104.039 24.9845 104.086 25.4299 104.18 25.8752C104.321 26.4845 104.719 26.7892 105.282 26.8361C106.149 26.883 106.618 26.672 106.852 26.0392C106.946 25.7814 107.016 25.4767 107.016 25.1955C107.039 24.5158 107.039 23.8361 107.016 23.1564C106.969 22.3595 106.477 21.9845 105.68 21.9377C104.532 21.8674 103.383 21.8439 102.258 21.6564C100.618 21.3752 99.4691 20.4377 99.0003 18.797C98.93 18.5861 98.93 18.3752 98.9066 18.1642C98.9066 17.3439 98.93 16.5236 98.9066 15.7033C98.8831 14.3674 99.4925 13.4064 100.547 12.7033C101.461 12.0939 102.493 11.8595 103.547 11.7424C105.211 11.5783 106.852 11.5549 108.469 11.9533C110.438 12.4689 111.797 13.6174 112.243 15.6799C112.36 16.383 112.383 17.0627 112.453 17.7189Z" fill="#010101"/>
<path d="M91.4531 39.1406C91.1016 39.1406 90.75 39.1406 90.375 39.1406C90.375 37.875 90.375 36.6094 90.375 35.3203C90.7031 35.3203 91.0312 35.3203 91.4062 35.3203C91.4297 35.4609 91.4531 35.625 91.4766 35.8594C91.8281 35.3906 92.2969 35.2266 92.7891 35.2266C93.3047 35.25 93.7266 35.4141 93.9609 35.9531C94.4062 35.3438 94.9688 35.1328 95.6484 35.2734C96.3047 35.3906 96.6797 35.7891 96.7031 36.4688C96.75 37.3594 96.7031 38.2266 96.7031 39.1172C96.3281 39.1172 96 39.1172 95.6016 39.1172C95.6016 38.7422 95.6016 38.3672 95.6016 38.0156C95.6016 37.5469 95.6016 37.1016 95.5781 36.6328C95.5547 36.2344 95.3203 36.0234 94.9453 35.9766C94.5703 35.9531 94.2422 36.1406 94.1719 36.5391C94.1016 36.8906 94.1016 37.2422 94.1016 37.5703C94.1016 38.0859 94.1016 38.5781 94.1016 39.1172C93.75 39.1172 93.3984 39.1172 93 39.1172C93 38.9297 93 38.7188 93 38.5313C93 37.8984 93 37.2656 92.9766 36.6563C92.9531 36.2578 92.6953 36.0234 92.3437 36C91.9922 35.9766 91.6641 36.1875 91.5703 36.5391C91.5234 36.75 91.5 36.9609 91.5 37.1719C91.5 37.8047 91.5 38.4375 91.5 39.0703C91.5 39.0703 91.4766 39.0938 91.4531 39.1406Z" fill="#010101"/>
<path d="M67.9688 39.1406C67.5938 39.1406 67.2422 39.1406 66.8672 39.1406C66.8672 38.5547 66.8672 37.9687 66.8672 37.4062C66.8672 37.1484 66.8672 36.8906 66.8438 36.6562C66.7969 36.2578 66.5391 36.0234 66.1875 36C65.8359 35.9766 65.5078 36.2109 65.4375 36.5625C65.3906 36.7969 65.3672 37.0547 65.3672 37.3125C65.3672 37.9219 65.3672 38.5312 65.3672 39.1406C65.0156 39.1406 64.6641 39.1406 64.2656 39.1406C64.2656 37.875 64.2656 36.6094 64.2656 35.3437C64.5938 35.3437 64.9219 35.3437 65.2734 35.3437C65.2969 35.4844 65.3203 35.6484 65.3672 35.8594C65.7188 35.4141 66.1641 35.2266 66.6797 35.25C67.1953 35.2734 67.6172 35.4375 67.8516 35.9766C68.2734 35.3672 68.8594 35.1797 69.5391 35.2969C70.1953 35.4141 70.5469 35.7891 70.5938 36.4453C70.6406 37.3359 70.5938 38.2266 70.5938 39.1406C70.2188 39.1406 69.8906 39.1406 69.4922 39.1406C69.4922 38.625 69.4922 38.1328 69.4922 37.6172C69.4922 37.3125 69.4922 36.9844 69.4688 36.6797C69.4453 36.2578 69.2109 36.0234 68.8125 36C68.4141 35.9766 68.0859 36.1875 68.0391 36.5859C67.9922 36.9375 67.9922 37.2891 67.9688 37.6406C67.9453 38.1328 67.9688 38.625 67.9688 39.1406Z" fill="#010101"/>
<path d="M122.836 45.023C122.555 45.8902 122.273 46.734 121.992 47.5543C121.922 47.7652 121.852 47.859 121.594 47.859C120.703 47.859 120.703 47.859 120.398 46.9918C120.047 46.0074 119.695 45.023 119.344 44.0152C119.742 44.0152 120.141 44.0152 120.539 44.0152C120.797 44.9293 121.055 45.8668 121.336 46.898C121.43 46.6168 121.5 46.4058 121.57 46.2183C121.781 45.5621 121.992 44.8824 122.227 44.2261C122.25 44.1324 122.414 44.0152 122.508 44.0152C123.539 43.9449 123.539 43.9683 123.82 44.9527C124.008 45.5621 124.195 46.1715 124.383 46.7808C124.383 46.8043 124.406 46.8277 124.453 46.8746C124.687 46.0074 124.945 45.1636 125.18 44.2965C125.25 44.0621 125.32 43.9683 125.578 43.9918C125.813 44.0152 126.047 43.9918 126.305 43.9918C126.258 44.1558 126.211 44.273 126.164 44.4136C125.813 45.4683 125.438 46.4996 125.086 47.5543C125.016 47.7652 124.922 47.859 124.687 47.859C123.773 47.859 123.797 47.859 123.516 46.9918C123.305 46.359 123.117 45.7261 122.906 45.0933C122.906 45.0933 122.883 45.0699 122.836 45.023Z" fill="#010101"/>
<path d="M59.2031 45.0469C58.9453 45.7969 58.6875 46.5703 58.4297 47.3203C58.2656 47.8359 58.2656 47.8359 57.6797 47.8359C57.5391 47.8359 57.375 47.8594 57.2344 47.8359C57.1406 47.8125 57.0234 47.7422 56.9766 47.6484C56.5312 46.4531 56.1094 45.2344 55.6641 43.9687C56.0625 43.9687 56.4141 43.9453 56.7656 43.9922C56.8359 43.9922 56.9063 44.1562 56.9531 44.25C57.1641 45.0234 57.375 45.7969 57.5859 46.5937C57.6094 46.6641 57.6328 46.7578 57.6797 46.8984C58.0078 45.8906 58.3125 44.9531 58.6172 43.9922C59.0391 43.9922 59.4375 43.9922 59.8594 43.9922C60.1406 44.9297 60.4219 45.8672 60.7266 46.8047C60.75 46.8047 60.7734 46.8047 60.7969 46.8047C61.0547 45.8672 61.3125 44.9297 61.5937 43.9922C61.9453 43.9922 62.25 43.9922 62.625 43.9922C62.5547 44.1797 62.5078 44.3438 62.4609 44.5078C62.1094 45.5391 61.7578 46.5469 61.4063 47.5781C61.3359 47.7656 61.2656 47.8359 61.0547 47.8359C60.1172 47.8359 60.1172 47.8359 59.8594 46.9688C59.6484 46.3359 59.4609 45.6797 59.25 45.0469C59.25 45.0469 59.2266 45.0469 59.2031 45.0469Z" fill="#010101"/>
<path d="M55.2422 39.1409C54.7734 39.1409 54.375 39.1409 53.9297 39.1409C53.8125 38.8128 53.6953 38.4612 53.5312 38.1097C53.4844 38.0159 53.3437 37.8987 53.2266 37.8987C52.5703 37.8753 51.9141 37.8987 51.2578 37.8753C51.0703 37.8753 50.9766 37.9456 50.9297 38.1097C50.8125 38.4378 50.6953 38.7659 50.5547 39.0941C50.1797 39.0941 49.8047 39.0941 49.3828 39.0941C49.5 38.8128 49.5938 38.555 49.6875 38.2972C50.2734 36.8206 50.8828 35.3441 51.4687 33.8675C51.5625 33.6566 51.6562 33.5628 51.8906 33.5862C52.2422 33.6097 52.6641 33.4925 52.9219 33.6566C53.1562 33.7972 53.2266 34.2425 53.3437 34.5472C53.9766 36.0941 54.6094 37.5941 55.2422 39.1409ZM53.1328 37.055C52.8281 36.2112 52.5703 35.3909 52.2422 34.5003C51.9141 35.4144 51.6328 36.2347 51.3281 37.0784C51.8438 37.0784 52.3125 37.0784 52.7813 37.0784C52.8984 37.055 52.9922 37.055 53.1328 37.055Z" fill="#010101"/>
<path d="M98.7422 38.7416C98.7422 39.3744 98.7422 39.9838 98.7422 40.6166C98.3672 40.6166 98.0156 40.6166 97.6406 40.6166C97.6406 38.8588 97.6406 37.1244 97.6406 35.3431C97.9688 35.3431 98.3203 35.3431 98.6953 35.3431C98.6953 35.5072 98.7187 35.6478 98.7187 35.8353C98.7656 35.7884 98.8125 35.765 98.8594 35.7181C99.6328 34.8978 100.992 35.1088 101.461 36.1166C101.812 36.89 101.766 37.6869 101.367 38.4134C100.805 39.3509 99.7031 39.4916 98.7422 38.7416ZM98.6719 37.1713C98.7187 37.4759 98.7187 37.6869 98.7891 37.8978C98.9062 38.3197 99.1641 38.5541 99.5391 38.5775C99.9141 38.6009 100.219 38.39 100.383 37.9681C100.57 37.4525 100.57 36.9369 100.336 36.4213C100.195 36.14 99.9844 35.9525 99.6328 35.9525C99.2812 35.9525 99.0469 36.0931 98.9062 36.3978C98.7891 36.6322 98.7422 36.9369 98.6719 37.1713Z" fill="#010101"/>
<path d="M71.6016 45.6328C72 45.1641 72.4219 44.7187 72.8203 44.25C72.9844 44.0625 73.125 43.9922 73.3828 43.9922C73.6875 44.0156 74.0156 43.9922 74.3906 43.9922C73.8281 44.5781 73.3359 45.0938 72.8203 45.6328C73.3828 46.3594 73.9453 47.0859 74.5547 47.8594C74.0625 47.8594 73.6641 47.8828 73.2656 47.8594C73.1719 47.8594 73.0547 47.7422 72.9844 47.625C72.5391 47.0156 72.0938 46.4063 71.5781 45.7031C71.5781 46.4766 71.5781 47.1328 71.5781 47.8359C71.1797 47.8359 70.8516 47.8359 70.4766 47.8359C70.4766 46.0078 70.4766 44.1797 70.4766 42.3516C70.8281 42.3516 71.1797 42.3516 71.5547 42.3516C71.5547 43.4297 71.5547 44.5078 71.5547 45.5859C71.5313 45.6094 71.5781 45.6094 71.6016 45.6328Z" fill="#010101"/>
<path d="M59.9998 36.3984C60.0232 35.8828 60.2576 35.5547 60.6794 35.3906C61.3357 35.1093 61.9919 35.1093 62.6716 35.3203C63.1404 35.4843 63.3748 35.8828 63.3748 36.3515C63.3982 37.2656 63.3748 38.1797 63.3748 39.1172C63.0935 39.1172 62.7654 39.1172 62.3904 39.1172C62.3669 39 62.3201 38.8593 62.2966 38.6718C61.8513 39.2109 61.2888 39.3047 60.656 39.164C60.1404 39.0703 59.8122 38.7187 59.7419 38.25C59.6716 37.6406 59.8357 37.1953 60.3748 37.0078C60.8435 36.8437 61.3591 36.8203 61.8513 36.7265C61.9919 36.7031 62.1326 36.7265 62.2732 36.7265C62.3201 36.1172 62.2029 35.8593 61.8513 35.789C61.4294 35.7187 61.2185 35.8593 61.1013 36.375C60.7497 36.3984 60.3982 36.3984 59.9998 36.3984ZM62.3435 37.3125C61.8748 37.2656 61.4763 37.2656 61.1247 37.4765C60.9841 37.5703 60.8669 37.7578 60.8435 37.9218C60.7732 38.2265 60.9607 38.414 61.2419 38.5312C61.5701 38.6484 61.9685 38.5078 62.1091 38.2031C62.2263 37.9453 62.2732 37.6406 62.3435 37.3125Z" fill="#010101"/>
<path d="M104.53 38.6947C104.038 39.2807 103.405 39.351 102.749 39.1635C102.35 39.0463 102.069 38.7885 101.999 38.3666C101.928 37.9213 101.928 37.4525 102.397 37.2182C102.795 37.0072 103.264 36.9135 103.71 36.7963C103.967 36.7494 104.249 36.7963 104.53 36.7963C104.577 36.1869 104.413 35.9057 104.061 35.8588C103.639 35.8119 103.475 35.9291 103.335 36.4447C102.983 36.4447 102.631 36.4447 102.233 36.4447C102.21 35.9994 102.421 35.6713 102.796 35.4838C103.499 35.1322 104.225 35.1322 104.928 35.39C105.303 35.5307 105.538 35.8588 105.561 36.2572C105.608 37.0541 105.608 37.851 105.631 38.6478C105.631 38.8119 105.655 38.976 105.655 39.1635C105.327 39.1635 104.975 39.1635 104.6 39.1635C104.624 38.9994 104.577 38.8588 104.53 38.6947ZM104.6 37.265C104.225 37.3119 103.897 37.3119 103.592 37.4057C103.171 37.5228 102.983 37.8744 103.124 38.226C103.264 38.5541 103.756 38.7182 104.085 38.4838C104.249 38.39 104.389 38.1791 104.483 37.9916C104.553 37.8041 104.553 37.5697 104.6 37.265Z" fill="#010101"/>
<path d="M107.555 35.3437C107.578 35.4844 107.602 35.6484 107.625 35.8359C108.07 35.3672 108.586 35.1563 109.219 35.2969C109.898 35.4375 110.227 35.7656 110.273 36.4688C110.297 37.3594 110.273 38.2266 110.273 39.1406C109.898 39.1406 109.547 39.1406 109.148 39.1406C109.148 38.3438 109.148 37.5703 109.148 36.7969C109.125 36.1641 108.586 35.7656 108.094 36.1172C107.883 36.2813 107.695 36.5859 107.672 36.8672C107.602 37.3594 107.625 37.8516 107.625 38.3438C107.625 38.6016 107.625 38.8828 107.625 39.1641C107.25 39.1641 106.898 39.1641 106.523 39.1641C106.523 37.8984 106.523 36.6563 106.523 35.3672C106.828 35.3438 107.18 35.3437 107.555 35.3437Z" fill="#010101"/>
<path d="M87.6328 39.2344C86.3203 39.2344 85.5469 38.4609 85.5469 37.2187C85.5469 36 86.4141 35.1797 87.7031 35.1797C88.9687 35.2031 89.7656 35.9766 89.7656 37.1953C89.7656 38.4844 88.9687 39.2344 87.6328 39.2344ZM88.6172 37.2422C88.5469 36.9609 88.5234 36.6562 88.4297 36.3984C88.2891 36.0703 88.0312 35.8828 87.6562 35.8828C87.2578 35.8828 87 36.0703 86.8828 36.3984C86.6719 36.9375 86.6953 37.5 86.8828 38.0625C87 38.4141 87.2812 38.6016 87.6562 38.6016C88.0312 38.6016 88.3125 38.4141 88.4297 38.0625C88.5234 37.8047 88.5703 37.5234 88.6172 37.2422Z" fill="#010101"/>
<path d="M79.3125 35.2969C78.8438 36.4453 78.3984 37.5234 77.9531 38.625C77.7188 39.1875 77.4609 39.75 77.25 40.3359C77.1797 40.5469 77.0625 40.6406 76.8281 40.6172C76.5938 40.5937 76.3594 40.6172 76.0547 40.6172C76.2188 40.1953 76.4063 39.8437 76.5469 39.4453C76.5938 39.2812 76.6172 39.0703 76.5469 38.9063C76.1016 37.8516 75.6094 36.8203 75.1406 35.7656C75.0703 35.625 75.0234 35.4844 74.9297 35.2969C75.3281 35.2969 75.6797 35.2734 76.0313 35.3203C76.125 35.3203 76.2188 35.4844 76.2656 35.5781C76.5703 36.4219 76.875 37.2656 77.2031 38.1797C77.3672 37.7109 77.5078 37.2891 77.6719 36.8906C77.8359 36.4453 77.9531 36 78.1406 35.5547C78.1875 35.4375 78.3516 35.3438 78.4688 35.3203C78.7266 35.2734 78.9844 35.2969 79.3125 35.2969Z" fill="#010101"/>
<path d="M110.508 35.3433C110.555 35.3198 110.578 35.3198 110.578 35.3198C110.953 35.3198 111.398 35.2027 111.68 35.3667C111.914 35.5308 111.984 35.9995 112.102 36.3277C112.312 36.9136 112.523 37.4995 112.734 38.0855C112.734 38.0855 112.758 38.0855 112.781 38.1089C113.109 37.1714 113.437 36.2339 113.766 35.3198C114.117 35.3198 114.469 35.3198 114.867 35.3198C114.563 36.0933 114.258 36.8433 113.953 37.5933C113.578 38.5073 113.18 39.398 112.828 40.312C112.734 40.5698 112.594 40.6636 112.336 40.6402C112.125 40.6167 111.891 40.6402 111.633 40.6402C111.797 40.2417 111.984 39.8667 112.102 39.4917C112.148 39.3277 112.172 39.0933 112.102 38.9292C111.633 37.8511 111.141 36.773 110.648 35.6948C110.578 35.5542 110.555 35.4605 110.508 35.3433Z" fill="#010101"/>
<path d="M85.2644 36.6099C84.8894 36.6099 84.5378 36.6099 84.1863 36.6099C84.0925 36.2818 84.0457 35.9068 83.5769 35.8834C83.1316 35.8599 82.78 36.024 82.7097 36.4693C82.6394 36.9615 82.6394 37.4771 82.7097 37.9693C82.78 38.4146 83.0847 38.6255 83.4597 38.6021C83.8347 38.6021 83.9988 38.438 84.1394 37.9459C84.1628 37.899 84.1628 37.8521 84.1863 37.7818C84.5378 37.7818 84.9128 37.7818 85.3582 37.7818C85.2644 38.063 85.2175 38.3443 85.0769 38.5552C84.5613 39.2818 83.7644 39.3287 82.991 39.2349C82.2644 39.1412 81.7488 38.7427 81.5378 37.9927C81.1863 36.7271 81.7488 35.5787 82.8503 35.2974C83.3425 35.1568 83.8347 35.1802 84.3035 35.3443C84.8894 35.5318 85.1941 35.9771 85.2644 36.6099Z" fill="#010101"/>
<path d="M57.6797 39.1169C57.6797 38.109 57.6797 37.0778 57.6797 36.0231C57.4219 36.0231 57.1875 36.0231 56.9297 36.0231C56.9297 35.7653 56.9297 35.5309 56.9297 35.2731C57.1641 35.2731 57.375 35.2731 57.6328 35.2731C57.6797 34.7106 57.6328 34.1012 58.1719 33.7731C58.6406 33.4919 59.1797 33.5856 59.6953 33.6325C59.6953 33.8669 59.6953 34.0778 59.6953 34.2653C59.4141 34.359 59.0859 34.3825 58.875 34.5465C58.7344 34.6637 58.7812 34.9919 58.7344 35.2731C59.0625 35.2731 59.3203 35.2731 59.625 35.2731C59.625 35.5309 59.625 35.7419 59.625 35.9997C59.3672 35.9997 59.0859 35.9997 58.7812 35.9997C58.7812 37.0544 58.7812 38.0622 58.7812 39.1169C58.4062 39.1169 58.0547 39.1169 57.6797 39.1169Z" fill="#010101"/>
<path d="M77.1797 47.8359C77.1797 46.8047 77.1797 45.7969 77.1797 44.7422C76.9453 44.7422 76.7109 44.7422 76.4531 44.7422C76.4531 44.4844 76.4531 44.2734 76.4531 43.9922C76.6875 43.9922 76.8984 43.9922 77.1328 43.9922C77.1563 43.7109 77.1797 43.4531 77.2266 43.1953C77.3438 42.6094 77.7188 42.3047 78.3047 42.2812C78.3984 42.2812 78.4688 42.2812 78.5625 42.2812C79.2656 42.2812 79.2656 42.2813 79.1953 43.0078C78.2578 43.1484 78.2578 43.1484 78.3047 43.9687C78.4453 43.9687 78.5859 43.9922 78.7266 43.9922C78.8672 43.9922 78.9844 43.9922 79.1484 43.9922C79.1484 44.25 79.1484 44.4844 79.1484 44.7422C78.8672 44.7422 78.6094 44.7422 78.3047 44.7422C78.3047 45.7969 78.3047 46.8047 78.3047 47.8359C77.9297 47.8359 77.5781 47.8359 77.1797 47.8359Z" fill="#010101"/>
<path d="M134.062 42.3516C134.438 42.3516 134.789 42.3516 135.141 42.3516C135.141 44.1797 135.141 45.9844 135.141 47.8359C134.789 47.8359 134.438 47.8359 134.062 47.8359C134.062 46.0078 134.062 44.1797 134.062 42.3516Z" fill="#010101"/>
<path d="M74.5781 39.1406C74.2031 39.1406 73.8516 39.1406 73.5 39.1406C73.5 37.3125 73.5 35.4844 73.5 33.6562C73.875 33.6562 74.2031 33.6562 74.5781 33.6562C74.5781 35.4844 74.5781 37.2891 74.5781 39.1406Z" fill="#010101"/>
<path d="M68.625 47.8364C68.2734 47.8364 67.9219 47.8364 67.5469 47.8364C67.5469 46.5474 67.5469 45.3052 67.5469 44.0161C67.875 44.0161 68.2266 44.0161 68.6016 44.0161C68.6016 44.2271 68.6016 44.4146 68.6016 44.6958C68.9766 44.1567 69.3984 43.8989 69.9844 44.0161C69.9844 44.3208 69.9844 44.6255 69.9844 44.9302C69.8672 44.9302 69.7969 44.9302 69.7031 44.9302C69.0469 44.9302 68.6953 45.2583 68.6953 45.938C68.6953 46.5474 68.6953 47.1802 68.6719 47.7896C68.6484 47.7896 68.6484 47.7896 68.625 47.8364Z" fill="#010101"/>
<path d="M85.1953 47.8357C84.7969 47.8357 84.4453 47.8357 84.0938 47.8357C84.0938 46.5467 84.0938 45.281 84.0938 44.0154C84.4453 44.0154 84.7969 44.0154 85.1719 44.0154C85.1719 44.2263 85.1719 44.4138 85.1719 44.6248C85.6875 44.0623 85.875 43.9685 86.5547 44.0154C86.5547 44.156 86.5547 44.3201 86.5547 44.4607C86.5547 44.6013 86.5547 44.742 86.5547 44.9295C86.4609 44.9295 86.3906 44.9295 86.3203 44.9295C85.5938 44.906 85.2422 45.2576 85.2188 46.0076C85.1953 46.617 85.1953 47.2029 85.1953 47.8357Z" fill="#010101"/>
<path d="M131.18 44.0156C131.508 44.0156 131.836 44.0156 132.188 44.0156C132.211 44.2031 132.234 44.3906 132.258 44.6719C132.609 44.1328 133.031 43.9453 133.594 44.0391C133.594 44.3438 133.594 44.6484 133.594 44.9297C133.57 44.9531 133.547 44.9531 133.523 44.9531C132.633 44.9063 132.281 45.2109 132.258 46.125C132.258 46.6875 132.258 47.2266 132.234 47.7891C132.234 47.7891 132.234 47.8125 132.211 47.8359C131.883 47.8359 131.531 47.8359 131.133 47.8359C131.18 46.5703 131.18 45.3047 131.18 44.0156Z" fill="#010101"/>
<path d="M115.969 47.8356C115.594 47.8356 115.266 47.8356 114.867 47.8356C114.867 46.57 114.867 45.3044 114.867 44.0153C115.172 44.0153 115.523 44.0153 115.875 44.0153C115.898 44.2028 115.898 44.3903 115.922 44.6247C116.508 44.0388 116.648 43.9919 117.258 44.0153C117.258 44.32 117.258 44.6247 117.258 44.9294C117.211 44.9294 117.164 44.9294 117.117 44.9294C116.32 44.906 115.969 45.2106 115.969 46.0075C115.969 46.6169 115.969 47.2263 115.969 47.8356Z" fill="#010101"/>
<path d="M72.5625 39.1406C72.1875 39.1406 71.8594 39.1406 71.5078 39.1406C71.5078 37.875 71.5078 36.6094 71.5078 35.3203C71.8594 35.3203 72.2109 35.3203 72.5625 35.3203C72.5625 36.5859 72.5625 37.8516 72.5625 39.1406Z" fill="#010101"/>
<path d="M71.4609 34.5C71.4609 34.2188 71.4609 33.9375 71.4609 33.6562C71.8359 33.6562 72.2109 33.6562 72.5859 33.6562C72.5859 33.9375 72.5859 34.1953 72.5859 34.5C72.2109 34.5 71.8594 34.5 71.4609 34.5Z" fill="#010101"/>
</svg>